
<svg width="18px" height="18px" viewBox="1851 955 18 18" version="1.1" xmlns="http://www.w3.org/2000/svg" xmlns:xlink="http://www.w3.org/1999/xlink">
    <!-- Generator: Sketch 39.1 (31720) - http://www.bohemiancoding.com/sketch -->
    <desc>Created with Sketch.</desc>
    <defs></defs>
    <path d="M1861.71668,963.966118 L1868.57264,957.112597 C1869.05294,956.629774 1869.05294,955.84486 1868.57264,955.362118 C1868.08982,954.879294 1867.30246,954.879294 1866.82216,955.362118 L1859.9662,962.215638 L1853.1126,955.362118 C1852.62977,954.879294 1851.84486,954.879294 1851.36212,955.362118 C1850.87938,955.844941 1850.87929,956.629855 1851.36212,957.112597 L1858.21564,963.966118 L1851.36212,970.822081 C1850.87929,971.30238 1850.87929,972.089819 1851.36212,972.572561 C1851.84494,973.05286 1852.62986,973.05286 1853.1126,972.572561 L1859.96612,965.716597 L1866.82208,972.572561 C1867.30238,973.05286 1868.08982,973.05286 1868.57256,972.572561 C1869.05286,972.089738 1869.05286,971.30238 1868.57256,970.822081 L1861.71668,963.966118 L1861.71668,963.966118 Z" id="Shape" stroke="none" fill="#FFFFFF" fill-rule="evenodd"></path>
</svg>