
<svg width="32px" height="35px" viewBox="1844 947 32 35" version="1.1" xmlns="http://www.w3.org/2000/svg" xmlns:xlink="http://www.w3.org/1999/xlink">
    <!-- Generator: Sketch 39.1 (31720) - http://www.bohemiancoding.com/sketch -->
    <g id="support-speech-bubble" stroke="none" stroke-width="1" fill="none" fill-rule="evenodd" transform="translate(1844.000000, 947.000000)">
        <g id="Capa_1" fill="#FFFFFF">
            <g id="Group">
                <path d="M8.42341371,34.9633151 C7.3604539,34.9633151 6.70260047,34.7421335 6.64094563,34.7206893 C6.12644917,34.5401751 5.84389598,33.9804814 6.00102128,33.4523414 L7.59194326,28.1046171 C2.90852009,25.3434464 0.0332104019,20.467035 0.0332104019,15.1873195 C0.0332104019,6.81320569 7.18774468,0 15.981844,0 C24.7759433,0 31.9304775,6.81320569 31.9304775,15.1873195 C31.9304775,23.3776258 25.2505721,30.0028884 16.6852388,30.3558753 C16.554818,30.3821444 16.4164539,30.3821444 16.2759716,30.349442 L16.2262695,30.3381838 C15.7268274,30.2246061 15.388747,29.752221 15.4379196,29.2364114 C15.4868652,28.7200656 15.9077825,28.3221225 16.4196312,28.3071116 C23.9781371,28.0864661 29.898818,22.3235667 29.898818,15.1873961 C29.898818,7.94729759 23.6556407,2.05695842 15.981844,2.05695842 C8.30804728,2.05695842 2.06486998,7.94714442 2.06486998,15.1873195 C2.06486998,19.9683807 4.82511584,24.3760832 9.26834988,26.6899891 C9.68525768,26.9068818 9.90116312,27.3847046 9.7907896,27.8464442 C9.78156028,27.8850438 9.77013712,27.9224945 9.75689835,27.9594858 L8.28315839,32.9135558 C9.32728132,32.9339278 11.1285863,32.6778993 13.2602553,31.0645295 C13.7091631,30.7249453 14.3464397,30.8176149 14.6818723,31.2723851 C15.0178345,31.7276915 14.9260709,32.3720131 14.4765579,32.7121335 C12.0360095,34.5594748 9.86016076,34.9633151 8.42341371,34.9633151 L8.42341371,34.9633151 Z" id="Shape"></path>
                <path d="M15.981844,11.0120569 L6.9737305,11.0120569 C6.5248227,11.0120569 6.16109693,10.643523 6.16109693,10.1893654 C6.16109693,9.73513129 6.5248227,9.36667396 6.9737305,9.36667396 L15.981844,9.36667396 C16.4307518,9.36667396 16.7944775,9.73520788 16.7944775,10.1893654 C16.7945532,10.643523 16.4308274,11.0120569 15.981844,11.0120569 L15.981844,11.0120569 Z" id="Shape"></path>
                <path d="M15.981844,16.0983917 L6.9737305,16.0983917 C6.5248227,16.0983917 6.16109693,15.7298578 6.16109693,15.2756236 C6.16109693,14.8213895 6.5248227,14.4529322 6.9737305,14.4529322 L15.981844,14.4529322 C16.4307518,14.4529322 16.7944775,14.8214661 16.7944775,15.2756236 C16.7945532,15.7298578 16.4308274,16.0983917 15.981844,16.0983917 L15.981844,16.0983917 Z" id="Shape"></path>
                <path d="M15.981844,21.1847265 L6.9737305,21.1847265 C6.5248227,21.1847265 6.16109693,20.8161926 6.16109693,20.362035 C6.16109693,19.9078775 6.5248227,19.5393435 6.9737305,19.5393435 L15.981844,19.5393435 C16.4307518,19.5393435 16.7944775,19.9078775 16.7944775,20.362035 C16.7944775,20.8161926 16.4308274,21.1847265 15.981844,21.1847265 L15.981844,21.1847265 Z" id="Shape"></path>
                <g transform="translate(19.215130, 8.807440)" id="Shape">
                    <path d="M1.64115366,3.84984683 C1.64115366,3.96533917 1.61906383,4.07294311 1.57533806,4.17227571 C1.53115839,4.27206783 1.47268085,4.3597593 1.40035934,4.43550328 C1.32758392,4.5116302 1.24209929,4.57083151 1.14398109,4.6126477 C1.04540898,4.65484683 0.939120567,4.67560175 0.82549409,4.67560175 C0.592416076,4.67560175 0.399432624,4.59694748 0.246543735,4.43963895 C0.0940330969,4.28233042 0.0175508274,4.08573304 0.0175508274,3.84977024 C0.0175508274,3.32576586 0.117333333,2.83277899 0.316822695,2.37119256 C0.515933806,1.91006565 0.786609929,1.50607221 1.12839716,1.1600547 C1.4701844,0.814037199 1.86886052,0.541619256 2.32472813,0.342111597 C2.78021749,0.142986871 3.26468085,0.0432713348 3.77743735,0.0432713348 C4.2901182,0.0432713348 4.77427896,0.145514223 5.23014657,0.35 C5.68563593,0.554485777 6.08469031,0.829737418 6.42647754,1.17575492 C6.76826478,1.52177243 7.0389409,1.92576586 7.23805201,2.38689278 C7.43761702,2.84840263 7.53732388,3.33602845 7.53732388,3.84969365 C7.53732388,4.88782276 7.16686525,5.78978118 6.42640189,6.55510941 L5.20677069,7.6954814 C4.79220804,8.11517505 4.58530496,8.5738512 4.58530496,9.07181619 C4.58530496,9.30777899 4.5088227,9.50315098 4.35631206,9.65754923 C4.20342317,9.81233042 4.01043972,9.8897593 3.7773617,9.8897593 C3.54428369,9.8897593 3.35008983,9.81233042 3.19470449,9.65754923 C3.03931915,9.50315098 2.96162648,9.30777899 2.96162648,9.07181619 C2.96162648,8.12804158 3.33163121,7.28160832 4.07254846,6.53152079 L5.29217967,5.38326039 C5.70636407,4.94824945 5.91364539,4.43703501 5.91364539,3.84969365 C5.91364539,3.55621444 5.85637825,3.27843545 5.74275177,3.01605033 C5.62867139,2.75404814 5.47495035,2.52474836 5.2803026,2.32769147 C5.086487,2.13147702 4.85961229,1.97547046 4.60073759,1.85997812 C4.34148463,1.74486871 4.0671773,1.68696937 3.77728605,1.68696937 C3.48209929,1.68696937 3.20484161,1.74326039 2.94604255,1.85584245 C2.6867896,1.96880744 2.46074704,2.12243982 2.26609929,2.31612691 C2.07228369,2.51027352 1.9193948,2.73834792 1.80818913,3.00035011 C1.6967565,3.2628884 1.64115366,3.54602845 1.64115366,3.84984683 L1.64115366,3.84984683 Z"></path>
                    <path d="M4.88056738,11.6387637 C4.88056738,11.9484026 4.77306856,12.2116302 4.55837352,12.4293654 C4.34330024,12.6466411 4.08283688,12.755547 3.77743735,12.755547 C3.47158392,12.755547 3.21157447,12.6467177 2.99650118,12.4293654 C2.7818818,12.2116302 2.67430733,11.9484026 2.67430733,11.6387637 C2.67430733,11.3295842 2.78180615,11.0658972 2.99650118,10.8481619 C3.21157447,10.6308862 3.47158392,10.5219803 3.77743735,10.5219803 C4.08283688,10.5219803 4.34330024,10.6308096 4.55837352,10.8481619 C4.77306856,11.0658206 4.88056738,11.3295077 4.88056738,11.6387637 L4.88056738,11.6387637 Z"></path>
                </g>
            </g>
        </g>
    </g>
</svg>